<mxfile host="app.diagrams.net" modified="2024-05-29T11:19:36.408Z" agent="Mozilla/5.0 (Macintosh; Intel Mac OS X 10_15_7) AppleWebKit/537.36 (KHTML, like Gecko) Chrome/125.0.0.0 Safari/537.36" etag="jFZQ4BCqjRPc70A_ubCs" version="24.4.4" type="device">
  <diagram name="Seite-1" id="Ga2HK0S5XOBphtDbI6z4">
    <mxGraphModel dx="1264" dy="728" grid="1" gridSize="10" guides="1" tooltips="1" connect="1" arrows="1" fold="1" page="1" pageScale="1" pageWidth="827" pageHeight="1169" background="#ffffff" math="0" shadow="0">
      <root>
        <mxCell id="0" />
        <mxCell id="1" parent="0" />
        <mxCell id="ap5yewTeoCsCZs6nf5lp-1" value="" style="edgeStyle=orthogonalEdgeStyle;rounded=0;orthogonalLoop=1;jettySize=auto;html=1;" parent="1" source="ap5yewTeoCsCZs6nf5lp-2" target="ap5yewTeoCsCZs6nf5lp-10" edge="1">
          <mxGeometry relative="1" as="geometry">
            <Array as="points">
              <mxPoint x="155" y="177" />
              <mxPoint x="220" y="177" />
            </Array>
          </mxGeometry>
        </mxCell>
        <mxCell id="ap5yewTeoCsCZs6nf5lp-35" style="edgeStyle=orthogonalEdgeStyle;rounded=0;orthogonalLoop=1;jettySize=auto;html=1;exitX=0.5;exitY=1;exitDx=0;exitDy=0;entryX=0.5;entryY=0;entryDx=0;entryDy=0;" parent="1" source="ap5yewTeoCsCZs6nf5lp-2" target="ap5yewTeoCsCZs6nf5lp-33" edge="1">
          <mxGeometry relative="1" as="geometry">
            <Array as="points">
              <mxPoint x="155" y="177" />
              <mxPoint x="95" y="177" />
            </Array>
          </mxGeometry>
        </mxCell>
        <mxCell id="ap5yewTeoCsCZs6nf5lp-2" value="RIPE ATLAS" style="rounded=0;whiteSpace=wrap;html=1;" parent="1" vertex="1">
          <mxGeometry x="100" y="127" width="110" height="40" as="geometry" />
        </mxCell>
        <mxCell id="ap5yewTeoCsCZs6nf5lp-3" value="" style="edgeStyle=orthogonalEdgeStyle;rounded=0;orthogonalLoop=1;jettySize=auto;html=1;" parent="1" source="ap5yewTeoCsCZs6nf5lp-4" target="ap5yewTeoCsCZs6nf5lp-12" edge="1">
          <mxGeometry relative="1" as="geometry" />
        </mxCell>
        <mxCell id="ap5yewTeoCsCZs6nf5lp-4" value="Cloudflare Radar" style="rounded=0;whiteSpace=wrap;html=1;" parent="1" vertex="1">
          <mxGeometry x="285" y="137" width="110" height="40" as="geometry" />
        </mxCell>
        <mxCell id="ap5yewTeoCsCZs6nf5lp-5" value="" style="edgeStyle=orthogonalEdgeStyle;rounded=0;orthogonalLoop=1;jettySize=auto;html=1;" parent="1" source="ap5yewTeoCsCZs6nf5lp-6" target="ap5yewTeoCsCZs6nf5lp-14" edge="1">
          <mxGeometry relative="1" as="geometry" />
        </mxCell>
        <mxCell id="ap5yewTeoCsCZs6nf5lp-6" value="IODA" style="rounded=0;whiteSpace=wrap;html=1;" parent="1" vertex="1">
          <mxGeometry x="405" y="137" width="110" height="40" as="geometry" />
        </mxCell>
        <mxCell id="ap5yewTeoCsCZs6nf5lp-7" value="" style="edgeStyle=orthogonalEdgeStyle;rounded=0;orthogonalLoop=1;jettySize=auto;html=1;" parent="1" source="ap5yewTeoCsCZs6nf5lp-8" target="ap5yewTeoCsCZs6nf5lp-16" edge="1">
          <mxGeometry relative="1" as="geometry" />
        </mxCell>
        <mxCell id="ap5yewTeoCsCZs6nf5lp-8" value="OONI" style="rounded=0;whiteSpace=wrap;html=1;" parent="1" vertex="1">
          <mxGeometry x="525" y="137" width="110" height="40" as="geometry" />
        </mxCell>
        <mxCell id="ap5yewTeoCsCZs6nf5lp-9" style="rounded=0;orthogonalLoop=1;jettySize=auto;html=1;exitX=0.5;exitY=1;exitDx=0;exitDy=0;entryX=0.5;entryY=0;entryDx=0;entryDy=0;" parent="1" source="ap5yewTeoCsCZs6nf5lp-10" target="ap5yewTeoCsCZs6nf5lp-19" edge="1">
          <mxGeometry relative="1" as="geometry" />
        </mxCell>
        <mxCell id="ap5yewTeoCsCZs6nf5lp-10" value="RIPE Built-In&lt;div&gt;Producer&lt;/div&gt;" style="rounded=0;whiteSpace=wrap;html=1;fillColor=#d5e8d4;strokeColor=#82b366;" parent="1" vertex="1">
          <mxGeometry x="165" y="197" width="110" height="40" as="geometry" />
        </mxCell>
        <mxCell id="ap5yewTeoCsCZs6nf5lp-11" style="rounded=0;orthogonalLoop=1;jettySize=auto;html=1;exitX=0.5;exitY=1;exitDx=0;exitDy=0;entryX=0.5;entryY=0;entryDx=0;entryDy=0;" parent="1" source="ap5yewTeoCsCZs6nf5lp-12" target="ap5yewTeoCsCZs6nf5lp-19" edge="1">
          <mxGeometry relative="1" as="geometry" />
        </mxCell>
        <mxCell id="ap5yewTeoCsCZs6nf5lp-12" value="CF Producer" style="rounded=0;whiteSpace=wrap;html=1;fillColor=#d5e8d4;strokeColor=#82b366;" parent="1" vertex="1">
          <mxGeometry x="285" y="197" width="110" height="40" as="geometry" />
        </mxCell>
        <mxCell id="ap5yewTeoCsCZs6nf5lp-13" style="rounded=0;orthogonalLoop=1;jettySize=auto;html=1;exitX=0.5;exitY=1;exitDx=0;exitDy=0;entryX=0.5;entryY=0;entryDx=0;entryDy=0;" parent="1" source="ap5yewTeoCsCZs6nf5lp-14" target="ap5yewTeoCsCZs6nf5lp-19" edge="1">
          <mxGeometry relative="1" as="geometry" />
        </mxCell>
        <mxCell id="ap5yewTeoCsCZs6nf5lp-14" value="IODA Producer" style="rounded=0;whiteSpace=wrap;html=1;" parent="1" vertex="1">
          <mxGeometry x="405" y="197" width="110" height="40" as="geometry" />
        </mxCell>
        <mxCell id="ap5yewTeoCsCZs6nf5lp-15" style="rounded=0;orthogonalLoop=1;jettySize=auto;html=1;exitX=0.5;exitY=1;exitDx=0;exitDy=0;entryX=0.5;entryY=0;entryDx=0;entryDy=0;" parent="1" source="ap5yewTeoCsCZs6nf5lp-16" target="ap5yewTeoCsCZs6nf5lp-19" edge="1">
          <mxGeometry relative="1" as="geometry" />
        </mxCell>
        <mxCell id="ap5yewTeoCsCZs6nf5lp-16" value="ONI Producer" style="rounded=0;whiteSpace=wrap;html=1;" parent="1" vertex="1">
          <mxGeometry x="525" y="197" width="110" height="40" as="geometry" />
        </mxCell>
        <mxCell id="ap5yewTeoCsCZs6nf5lp-17" value="Data Warehouse" style="swimlane;whiteSpace=wrap;html=1;align=center;" parent="1" vertex="1">
          <mxGeometry x="250" y="267" width="330" height="240" as="geometry">
            <mxRectangle x="110" y="260" width="130" height="30" as="alternateBounds" />
          </mxGeometry>
        </mxCell>
        <mxCell id="ap5yewTeoCsCZs6nf5lp-18" style="edgeStyle=orthogonalEdgeStyle;rounded=0;orthogonalLoop=1;jettySize=auto;html=1;exitX=0.5;exitY=1;exitDx=0;exitDy=0;entryX=0.5;entryY=0;entryDx=0;entryDy=0;" parent="ap5yewTeoCsCZs6nf5lp-17" source="ap5yewTeoCsCZs6nf5lp-19" target="ap5yewTeoCsCZs6nf5lp-21" edge="1">
          <mxGeometry relative="1" as="geometry" />
        </mxCell>
        <mxCell id="ap5yewTeoCsCZs6nf5lp-19" value="" style="rounded=0;whiteSpace=wrap;html=1;fillColor=#d5e8d4;strokeColor=#82b366;" parent="ap5yewTeoCsCZs6nf5lp-17" vertex="1">
          <mxGeometry x="85" y="40" width="120" height="60" as="geometry" />
        </mxCell>
        <mxCell id="ap5yewTeoCsCZs6nf5lp-20" value="" style="edgeStyle=orthogonalEdgeStyle;rounded=0;orthogonalLoop=1;jettySize=auto;html=1;" parent="ap5yewTeoCsCZs6nf5lp-17" source="ap5yewTeoCsCZs6nf5lp-21" target="ap5yewTeoCsCZs6nf5lp-26" edge="1">
          <mxGeometry relative="1" as="geometry" />
        </mxCell>
        <mxCell id="ap5yewTeoCsCZs6nf5lp-21" value="Consumer" style="rounded=0;whiteSpace=wrap;html=1;fontSize=8;fillColor=#d5e8d4;strokeColor=#82b366;" parent="ap5yewTeoCsCZs6nf5lp-17" vertex="1">
          <mxGeometry x="105" y="115" width="80" height="30" as="geometry" />
        </mxCell>
        <mxCell id="ap5yewTeoCsCZs6nf5lp-22" value="Kafka UI" style="rounded=0;whiteSpace=wrap;html=1;fontSize=8;fillColor=#d5e8d4;strokeColor=#82b366;" parent="ap5yewTeoCsCZs6nf5lp-17" vertex="1">
          <mxGeometry x="250" y="56.25" width="60" height="27.5" as="geometry" />
        </mxCell>
        <mxCell id="ap5yewTeoCsCZs6nf5lp-23" style="edgeStyle=orthogonalEdgeStyle;rounded=0;orthogonalLoop=1;jettySize=auto;html=1;exitX=1;exitY=0.5;exitDx=0;exitDy=0;entryX=0;entryY=0.5;entryDx=0;entryDy=0;" parent="ap5yewTeoCsCZs6nf5lp-17" source="ap5yewTeoCsCZs6nf5lp-19" target="ap5yewTeoCsCZs6nf5lp-22" edge="1">
          <mxGeometry relative="1" as="geometry" />
        </mxCell>
        <mxCell id="ap5yewTeoCsCZs6nf5lp-24" value="" style="shape=image;verticalLabelPosition=bottom;labelBackgroundColor=default;verticalAlign=top;aspect=fixed;imageAspect=0;image=https://www.ovhcloud.com/sites/default/files/styles/text_media_horizontal/public/2021-09/ECX-1909_Hero_Kafka_600x400%402x-1.png;fillColor=#d5e8d4;strokeColor=#82b366;" parent="ap5yewTeoCsCZs6nf5lp-17" vertex="1">
          <mxGeometry x="90" y="48.730000000000004" width="110" height="42.54" as="geometry" />
        </mxCell>
        <mxCell id="ap5yewTeoCsCZs6nf5lp-25" value="" style="group;fillColor=#d5e8d4;strokeColor=#82b366;container=0;" parent="ap5yewTeoCsCZs6nf5lp-17" vertex="1" connectable="0">
          <mxGeometry x="85" y="160" width="120" height="60" as="geometry" />
        </mxCell>
        <mxCell id="ap5yewTeoCsCZs6nf5lp-26" value="" style="rounded=0;whiteSpace=wrap;html=1;fillColor=#d5e8d4;strokeColor=#82b366;" parent="ap5yewTeoCsCZs6nf5lp-17" vertex="1">
          <mxGeometry x="85" y="160" width="120" height="60" as="geometry" />
        </mxCell>
        <mxCell id="ap5yewTeoCsCZs6nf5lp-27" value="" style="shape=image;verticalLabelPosition=bottom;labelBackgroundColor=default;verticalAlign=top;aspect=fixed;imageAspect=0;image=https://duckdb.org/images/logo-dl/DuckDB_Logo-horizontal.svg;" parent="ap5yewTeoCsCZs6nf5lp-17" vertex="1">
          <mxGeometry x="96" y="175.27" width="104" height="29.46" as="geometry" />
        </mxCell>
        <mxCell id="ap5yewTeoCsCZs6nf5lp-28" value="Jupyter" style="rounded=0;whiteSpace=wrap;html=1;" parent="1" vertex="1">
          <mxGeometry x="340" y="527" width="110" height="40" as="geometry" />
        </mxCell>
        <mxCell id="ap5yewTeoCsCZs6nf5lp-29" style="edgeStyle=orthogonalEdgeStyle;rounded=0;orthogonalLoop=1;jettySize=auto;html=1;exitX=0.5;exitY=1;exitDx=0;exitDy=0;entryX=0.5;entryY=0;entryDx=0;entryDy=0;" parent="1" source="ap5yewTeoCsCZs6nf5lp-26" target="ap5yewTeoCsCZs6nf5lp-28" edge="1">
          <mxGeometry relative="1" as="geometry" />
        </mxCell>
        <mxCell id="ap5yewTeoCsCZs6nf5lp-30" value="" style="rounded=0;whiteSpace=wrap;html=1;fillColor=#d5e8d4;strokeColor=#82b366;" parent="1" vertex="1">
          <mxGeometry x="610" y="362" width="60" height="20" as="geometry" />
        </mxCell>
        <mxCell id="ap5yewTeoCsCZs6nf5lp-31" value="= Docker Container" style="text;html=1;align=left;verticalAlign=middle;resizable=0;points=[];autosize=1;strokeColor=none;fillColor=none;" parent="1" vertex="1">
          <mxGeometry x="680" y="357" width="130" height="30" as="geometry" />
        </mxCell>
        <mxCell id="ap5yewTeoCsCZs6nf5lp-36" style="rounded=0;orthogonalLoop=1;jettySize=auto;html=1;exitX=0.5;exitY=1;exitDx=0;exitDy=0;entryX=0.5;entryY=0;entryDx=0;entryDy=0;" parent="1" source="ap5yewTeoCsCZs6nf5lp-33" target="ap5yewTeoCsCZs6nf5lp-19" edge="1">
          <mxGeometry relative="1" as="geometry" />
        </mxCell>
        <mxCell id="ap5yewTeoCsCZs6nf5lp-33" value="RIPE Single-Meas.&lt;div&gt;Producer&lt;/div&gt;" style="rounded=0;whiteSpace=wrap;html=1;fillColor=#d5e8d4;strokeColor=#82b366;" parent="1" vertex="1">
          <mxGeometry x="40" y="197" width="110" height="40" as="geometry" />
        </mxCell>
        <mxCell id="Ro7sh-K0I-Y4kn5RZ-OG-1" value="Old Layout" style="text;html=1;align=left;verticalAlign=middle;resizable=0;points=[];autosize=1;strokeColor=none;fillColor=none;fontSize=24;fontStyle=1" vertex="1" parent="1">
          <mxGeometry x="40" y="40" width="140" height="40" as="geometry" />
        </mxCell>
        <mxCell id="Ro7sh-K0I-Y4kn5RZ-OG-2" value="DE Lab Layout" style="text;html=1;align=left;verticalAlign=middle;resizable=0;points=[];autosize=1;strokeColor=none;fillColor=none;fontSize=24;fontStyle=1" vertex="1" parent="1">
          <mxGeometry x="40" y="600" width="180" height="40" as="geometry" />
        </mxCell>
        <mxCell id="Ro7sh-K0I-Y4kn5RZ-OG-4" value="=&amp;gt; Multi-container setup is difficult (impossible) on DE Lab" style="text;html=1;align=left;verticalAlign=middle;resizable=0;points=[];autosize=1;strokeColor=none;fillColor=none;" vertex="1" parent="1">
          <mxGeometry x="220" y="605" width="330" height="30" as="geometry" />
        </mxCell>
        <mxCell id="Ro7sh-K0I-Y4kn5RZ-OG-5" value="" style="edgeStyle=orthogonalEdgeStyle;rounded=0;orthogonalLoop=1;jettySize=auto;html=1;" edge="1" source="Ro7sh-K0I-Y4kn5RZ-OG-7" target="Ro7sh-K0I-Y4kn5RZ-OG-14" parent="1">
          <mxGeometry relative="1" as="geometry">
            <Array as="points">
              <mxPoint x="157.5" y="710" />
              <mxPoint x="222.5" y="710" />
            </Array>
          </mxGeometry>
        </mxCell>
        <mxCell id="Ro7sh-K0I-Y4kn5RZ-OG-6" style="edgeStyle=orthogonalEdgeStyle;rounded=0;orthogonalLoop=1;jettySize=auto;html=1;exitX=0.5;exitY=1;exitDx=0;exitDy=0;entryX=0.5;entryY=0;entryDx=0;entryDy=0;" edge="1" source="Ro7sh-K0I-Y4kn5RZ-OG-7" target="Ro7sh-K0I-Y4kn5RZ-OG-18" parent="1">
          <mxGeometry relative="1" as="geometry">
            <Array as="points">
              <mxPoint x="157.5" y="710" />
              <mxPoint x="97.5" y="710" />
            </Array>
          </mxGeometry>
        </mxCell>
        <mxCell id="Ro7sh-K0I-Y4kn5RZ-OG-7" value="RIPE ATLAS" style="rounded=0;whiteSpace=wrap;html=1;" vertex="1" parent="1">
          <mxGeometry x="102.5" y="660" width="110" height="40" as="geometry" />
        </mxCell>
        <mxCell id="Ro7sh-K0I-Y4kn5RZ-OG-8" value="" style="edgeStyle=orthogonalEdgeStyle;rounded=0;orthogonalLoop=1;jettySize=auto;html=1;" edge="1" source="Ro7sh-K0I-Y4kn5RZ-OG-9" target="Ro7sh-K0I-Y4kn5RZ-OG-15" parent="1">
          <mxGeometry relative="1" as="geometry" />
        </mxCell>
        <mxCell id="Ro7sh-K0I-Y4kn5RZ-OG-9" value="Cloudflare Radar" style="rounded=0;whiteSpace=wrap;html=1;" vertex="1" parent="1">
          <mxGeometry x="287.5" y="670" width="110" height="40" as="geometry" />
        </mxCell>
        <mxCell id="Ro7sh-K0I-Y4kn5RZ-OG-10" value="" style="edgeStyle=orthogonalEdgeStyle;rounded=0;orthogonalLoop=1;jettySize=auto;html=1;" edge="1" source="Ro7sh-K0I-Y4kn5RZ-OG-11" target="Ro7sh-K0I-Y4kn5RZ-OG-16" parent="1">
          <mxGeometry relative="1" as="geometry" />
        </mxCell>
        <mxCell id="Ro7sh-K0I-Y4kn5RZ-OG-11" value="IODA" style="rounded=0;whiteSpace=wrap;html=1;" vertex="1" parent="1">
          <mxGeometry x="407.5" y="670" width="110" height="40" as="geometry" />
        </mxCell>
        <mxCell id="Ro7sh-K0I-Y4kn5RZ-OG-12" value="" style="edgeStyle=orthogonalEdgeStyle;rounded=0;orthogonalLoop=1;jettySize=auto;html=1;" edge="1" source="Ro7sh-K0I-Y4kn5RZ-OG-13" target="Ro7sh-K0I-Y4kn5RZ-OG-17" parent="1">
          <mxGeometry relative="1" as="geometry" />
        </mxCell>
        <mxCell id="Ro7sh-K0I-Y4kn5RZ-OG-13" value="OONI" style="rounded=0;whiteSpace=wrap;html=1;" vertex="1" parent="1">
          <mxGeometry x="527.5" y="670" width="110" height="40" as="geometry" />
        </mxCell>
        <mxCell id="Ro7sh-K0I-Y4kn5RZ-OG-14" value="RIPE Built-In&lt;div&gt;Producer&lt;/div&gt;" style="rounded=0;whiteSpace=wrap;html=1;fillColor=#d5e8d4;strokeColor=#82b366;" vertex="1" parent="1">
          <mxGeometry x="167.5" y="730" width="110" height="40" as="geometry" />
        </mxCell>
        <mxCell id="Ro7sh-K0I-Y4kn5RZ-OG-15" value="CF Producer" style="rounded=0;whiteSpace=wrap;html=1;fillColor=#d5e8d4;strokeColor=#82b366;" vertex="1" parent="1">
          <mxGeometry x="287.5" y="730" width="110" height="40" as="geometry" />
        </mxCell>
        <mxCell id="Ro7sh-K0I-Y4kn5RZ-OG-16" value="IODA Producer" style="rounded=0;whiteSpace=wrap;html=1;" vertex="1" parent="1">
          <mxGeometry x="407.5" y="730" width="110" height="40" as="geometry" />
        </mxCell>
        <mxCell id="Ro7sh-K0I-Y4kn5RZ-OG-17" value="ONI Producer" style="rounded=0;whiteSpace=wrap;html=1;" vertex="1" parent="1">
          <mxGeometry x="527.5" y="730" width="110" height="40" as="geometry" />
        </mxCell>
        <mxCell id="Ro7sh-K0I-Y4kn5RZ-OG-18" value="RIPE Single-Meas.&lt;div&gt;Producer&lt;/div&gt;" style="rounded=0;whiteSpace=wrap;html=1;fillColor=#d5e8d4;strokeColor=#82b366;" vertex="1" parent="1">
          <mxGeometry x="42.5" y="730" width="110" height="40" as="geometry" />
        </mxCell>
      </root>
    </mxGraphModel>
  </diagram>
</mxfile>
